# Blender 4.2.11 LTS
# www.blender.org
o tmp_export_Science.483
v -0.042485 0.003911 0.000416
v 0.001328 -0.000122 -0.000013
v -0.042668 -0.000542 0.000418
v -0.041852 0.008323 0.000410
v -0.041950 0.008323 -0.009589
v -0.042766 -0.000542 -0.009581
v -0.041781 -0.009390 -0.009591
v -0.020335 -0.016213 -0.009801
v -0.017035 0.019635 -0.009834
v -0.005848 0.043305 -0.009943
v -0.014444 0.040991 -0.009859
v 0.042858 0.014122 -0.010420
v -0.022399 0.036994 -0.009781
v 0.039494 0.021597 -0.010388
v -0.029386 0.031478 -0.009713
v 0.034338 0.028856 -0.010337
v -0.035120 0.024668 -0.009656
v 0.027828 0.034927 -0.010273
v -0.017388 0.019635 -0.045832
v -0.039366 0.016843 -0.009615
v 0.020228 0.039564 -0.010199
v 0.011851 0.042577 -0.010117
v 0.003039 0.043841 -0.010030
v 0.011949 0.042577 -0.000117
v 0.003137 0.043841 -0.000031
v -0.005750 0.043305 0.000056
v -0.014346 0.040991 0.000141
v -0.022301 0.036994 0.000219
v -0.029288 0.031478 0.000287
v -0.035022 0.024668 0.000343
v -0.039268 0.016843 0.000385
v 0.020326 0.039564 -0.000199
v 0.027926 0.034927 -0.000274
v 0.034436 0.028856 -0.000337
v 0.039592 0.021597 -0.000388
v 0.043180 0.013450 -0.000423
v 0.045055 0.004747 -0.000442
v 0.043082 0.013450 -0.010423
v 0.044957 0.004747 -0.010441
v 0.050675 0.013402 -0.010497
v 0.050323 0.013402 -0.046495
v 0.049864 0.005436 -0.018490
v 0.045042 -0.004156 -0.010442
v 0.048030 -0.014480 -0.018472
v 0.047375 -0.022447 -0.010465
v 0.047834 -0.014480 -0.038471
v 0.047023 -0.022447 -0.046463
v 0.039901 -0.021107 -0.010392
v 0.039559 -0.021727 -0.010388
v 0.043334 -0.012893 -0.010425
v 0.039999 -0.021107 -0.000392
v 0.043432 -0.012893 -0.000426
v 0.045140 -0.004156 -0.000442
v 0.034984 -0.028463 -0.000343
v 0.028590 -0.034658 -0.000280
v 0.034886 -0.028463 -0.010342
v 0.028492 -0.034658 -0.010280
v 0.020982 -0.039439 -0.010206
v 0.021080 -0.039439 -0.000207
v 0.012762 -0.042610 -0.000125
v 0.003976 -0.044042 -0.000039
v 0.012664 -0.042610 -0.010125
v 0.003878 -0.044042 -0.010038
v -0.004919 -0.043676 0.000048
v -0.005017 -0.043676 -0.009951
v -0.013558 -0.041527 0.000133
v -0.013656 -0.041527 -0.009867
v -0.021686 -0.037683 -0.009788
v -0.021588 -0.037683 0.000212
v -0.028680 -0.032301 0.000281
v -0.034543 -0.025602 0.000339
v -0.028778 -0.032301 -0.009718
v -0.034641 -0.025602 -0.009661
v -0.039035 -0.017859 -0.009618
v -0.038937 -0.017859 0.000382
v -0.041683 -0.009390 0.000408
v -0.020688 -0.016213 -0.045799
v 0.026056 -0.003993 -0.046258
v 0.026400 -0.004544 -0.046261
v 0.025818 -0.002093 -0.046255
v 0.025758 -0.002739 -0.046255
v 0.026854 -0.005007 -0.046265
v 0.025839 -0.003382 -0.046255
v 0.027397 -0.005362 -0.046271
v 0.026932 -0.005007 -0.038266
v 0.027475 -0.005362 -0.038271
v 0.028003 -0.005592 -0.046277
v 0.028081 -0.005592 -0.038277
v 0.028645 -0.005687 -0.046283
v 0.028723 -0.005687 -0.038283
v 0.029292 -0.005641 -0.046289
v 0.029370 -0.005641 -0.038290
v 0.029914 -0.005457 -0.046295
v 0.029992 -0.005457 -0.038296
v 0.030482 -0.005144 -0.046301
v 0.030560 -0.005144 -0.038301
v 0.030969 -0.004716 -0.046306
v 0.031048 -0.004716 -0.038306
v 0.031353 -0.004193 -0.046309
v 0.031432 -0.004193 -0.038310
v 0.031616 -0.003600 -0.046312
v 0.031694 -0.003600 -0.038312
v 0.031745 -0.002964 -0.046313
v 0.031823 -0.002964 -0.038314
v 0.031734 -0.002315 -0.046313
v 0.031813 -0.002315 -0.038314
v 0.031584 -0.001684 -0.046312
v 0.031663 -0.001684 -0.038312
v 0.031302 -0.001100 -0.046309
v 0.031381 -0.001100 -0.038309
v 0.030901 -0.000590 -0.046305
v 0.030980 -0.000590 -0.038305
v 0.030400 -0.000178 -0.046300
v 0.030478 -0.000178 -0.038301
v 0.029822 0.000116 -0.046294
v 0.029900 0.000116 -0.038295
v 0.029194 0.000279 -0.046288
v 0.029273 0.000279 -0.038289
v 0.028546 0.000304 -0.046282
v 0.028624 0.000304 -0.038282
v 0.027908 0.000188 -0.046276
v 0.027986 0.000188 -0.038276
v 0.027309 -0.000062 -0.046270
v 0.027387 -0.000062 -0.038270
v 0.026778 -0.000435 -0.046265
v 0.026857 -0.000435 -0.038265
v 0.026340 -0.000913 -0.046260
v 0.026418 -0.000913 -0.038261
v 0.026015 -0.001474 -0.046257
v 0.026093 -0.001474 -0.038258
v 0.025896 -0.002093 -0.038256
v -0.010077 0.010936 -0.037903
v 0.025849 -0.002414 -0.038255
v -0.009881 0.010936 -0.017904
v -0.011910 -0.008980 -0.037885
v -0.011714 -0.008980 -0.017886
v 0.049668 0.005436 -0.038489
v 0.026135 -0.003993 -0.038258
v 0.026478 -0.004544 -0.038261
v 0.025837 -0.002739 -0.038255
v 0.025917 -0.003382 -0.038256
v 0.117712 -0.021146 -0.018904
v 0.117511 -0.021146 -0.039403
v 0.119591 -0.000732 -0.018923
v 0.049889 0.005685 -0.018240
v 0.048010 -0.014729 -0.018221
v 0.047809 -0.014729 -0.038720
v 0.047355 -0.022695 -0.010215
v 0.046997 -0.022695 -0.046713
v 0.070258 0.011817 -0.046941
v 0.066912 -0.024529 -0.046908
v 0.050343 0.013651 -0.046746
v 0.136972 -0.030946 -0.011093
v 0.166550 -0.033696 -0.041384
v 0.050701 0.013651 -0.010247
v 0.140317 0.005401 -0.011126
v 0.169896 0.002651 -0.041417
v 0.132865 0.005997 -0.111057
v 0.129519 -0.030350 -0.111025
v 0.132669 0.005997 -0.131056
v 0.169014 0.002651 -0.131413
v 0.138023 -0.023117 -0.131109
v 0.129323 -0.030350 -0.131024
v 0.139902 -0.002703 -0.131127
v 0.160315 -0.004582 -0.131327
v 0.132473 0.005997 -0.151055
v 0.169014 0.002651 -0.131413
v 0.168132 0.002651 -0.221408
v 0.164786 -0.033696 -0.221375
v 0.165668 -0.033696 -0.131380
v 0.158435 -0.024996 -0.131309
v 0.158435 -0.024996 -0.131309
v 0.157749 -0.024996 -0.201306
v 0.137337 -0.023117 -0.201105
v 0.159629 -0.004582 -0.201324
v 0.139216 -0.002703 -0.201124
v 0.161000 -0.004582 -0.061331
v 0.159121 -0.024996 -0.061312
v 0.138709 -0.023117 -0.061112
v 0.140588 -0.002703 -0.061131
v 0.129127 -0.030350 -0.151023
v 0.134620 -0.030946 -0.251081
v 0.065276 -0.024529 -0.213900
v 0.137966 0.005401 -0.251114
v 0.045003 -0.022695 -0.250203
v 0.048349 0.013651 -0.250236
v 0.045815 -0.014729 -0.242211
v 0.046016 -0.014729 -0.221712
v 0.045361 -0.022695 -0.213705
v 0.048707 0.013651 -0.213738
v 0.047895 0.005685 -0.221730
v 0.115718 -0.021146 -0.222395
v 0.047694 0.005685 -0.242229
v 0.117597 -0.000732 -0.222413
v 0.115517 -0.021146 -0.242894
v 0.117396 -0.000732 -0.242912
v 0.068621 0.011817 -0.213933
v 0.049688 0.005685 -0.038739
v 0.119390 -0.000732 -0.039422
vn 0.0098 -0.0000 1.0000
vn -0.9991 0.0411 0.0098
vn -0.9898 0.1420 0.0097
vn -0.9957 0.0916 -0.0128
vn -0.9938 -0.1107 0.0097
vn -0.0098 -0.0000 -1.0000
vn 0.0917 0.9958 -0.0009
vn -0.9957 0.0917 0.0098
vn 0.1420 0.9899 -0.0014
vn -0.0602 0.9982 0.0006
vn -0.2599 0.9656 0.0025
vn -0.4489 0.8936 0.0044
vn -0.6196 0.7849 0.0061
vn -0.7649 0.6441 0.0075
vn -0.8789 0.4769 0.0086
vn -0.9569 0.2902 0.0094
vn 0.3383 0.9410 -0.0033
vn 0.5208 0.8537 -0.0051
vn 0.6820 0.7313 -0.0067
vn 0.8152 0.5791 -0.0080
vn 0.9152 0.4031 -0.0024
vn 0.9118 0.4105 -0.0089
vn 0.9775 0.2106 -0.0096
vn 0.9487 0.3161 -0.0093
vn 0.9957 -0.0917 -0.0098
vn -0.0917 -0.9958 0.0009
vn 0.9226 -0.3856 -0.0090
vn 0.9814 -0.1919 -0.0096
vn 0.9999 0.0095 -0.0098
vn 0.8262 -0.5634 -0.0015
vn 0.8750 -0.4840 -0.0086
vn 0.6958 -0.7182 -0.0068
vn 0.8216 -0.5700 -0.0081
vn 0.5370 -0.8436 -0.0053
vn 0.3562 -0.9344 -0.0035
vn 0.1608 -0.9870 -0.0016
vn -0.0411 -0.9992 0.0004
vn -0.2414 -0.9704 0.0024
vn -0.4318 -0.9020 0.0042
vn -0.6045 -0.7966 0.0059
vn -0.7525 -0.6586 0.0074
vn -0.8696 -0.4936 0.0085
vn -0.9512 -0.3085 0.0093
vn 0.5474 0.8369 -0.0054
vn 0.5474 0.8368 -0.0054
vn 0.3547 0.9350 -0.0035
vn 0.1454 0.9894 -0.0014
vn -0.0707 0.9975 0.0007
vn -0.2834 0.9590 0.0028
vn -0.4829 0.8757 0.0047
vn -0.6599 0.7514 0.0065
vn -0.4829 0.8756 0.0047
vn -0.8060 0.5919 0.0079
vn -0.9143 0.4049 0.0090
vn -0.9800 0.1987 0.0096
vn -0.9998 -0.0164 0.0098
vn -0.9800 0.1988 0.0096
vn -0.9998 -0.0165 0.0098
vn -0.9729 -0.2311 0.0095
vn -0.9004 -0.4349 0.0088
vn -0.7860 -0.6182 0.0077
vn -0.6347 -0.7728 0.0062
vn -0.4537 -0.8911 0.0044
vn -0.2516 -0.9678 0.0025
vn -0.0376 -0.9993 0.0004
vn 0.1781 -0.9840 -0.0017
vn 0.3855 -0.9227 -0.0038
vn 0.5747 -0.8183 -0.0056
vn 0.7372 -0.6756 -0.0072
vn 0.8652 -0.5013 -0.0085
vn 0.7373 -0.6756 -0.0072
vn 0.9528 -0.3036 -0.0093
vn 0.9922 0.1245 -0.0097
vn 0.9422 0.3349 -0.0092
vn 0.9992 -0.0376 -0.0098
vn 0.8481 0.5297 -0.0083
vn 0.7145 0.6996 -0.0070
vn 0.8482 0.5296 -0.0083
vn 0.9893 -0.1455 -0.0097
vn 0.9958 -0.0916 -0.0076
vn 0.7110 -0.0648 0.7002
vn -0.7110 0.0648 -0.7002
vn 0.6972 -0.0648 -0.7140
vn -0.6972 0.0648 0.7140
s 0
f 1//1 2//1 4//1
f 1//1 3//1 2//1
f 1//2 6//2 3//2
f 4//3 5//3 1//3
f 5//4 6//4 1//4
f 6//5 7//5 3//5
f 6//6 5//6 9//6
f 7//6 6//6 8//6
f 8//6 6//6 9//6
f 10//6 23//6 9//6
f 9//6 11//6 10//6
f 13//6 11//6 9//6
f 12//7 19//7 9//7
f 14//6 12//6 9//6
f 15//6 13//6 9//6
f 9//6 16//6 14//6
f 15//6 9//6 17//6
f 18//6 16//6 9//6
f 9//6 20//6 17//6
f 9//8 19//8 8//8
f 21//6 18//6 9//6
f 9//6 5//6 20//6
f 9//6 22//6 21//6
f 23//6 22//6 9//6
f 24//9 23//9 25//9
f 22//9 23//9 24//9
f 23//10 10//10 25//10
f 2//1 25//1 26//1
f 24//1 25//1 2//1
f 25//10 10//10 26//10
f 26//1 27//1 2//1
f 26//11 11//11 27//11
f 10//11 11//11 26//11
f 27//1 28//1 2//1
f 27//12 13//12 28//12
f 11//12 13//12 27//12
f 13//13 15//13 28//13
f 28//13 15//13 29//13
f 2//1 28//1 29//1
f 29//1 30//1 2//1
f 29//14 17//14 30//14
f 15//14 17//14 29//14
f 30//1 31//1 2//1
f 30//15 20//15 31//15
f 17//15 20//15 30//15
f 2//1 31//1 4//1
f 31//16 5//16 4//16
f 20//16 5//16 31//16
f 32//17 22//17 24//17
f 32//1 24//1 2//1
f 2//1 33//1 32//1
f 33//18 21//18 32//18
f 21//17 22//17 32//17
f 34//1 33//1 2//1
f 34//19 18//19 33//19
f 18//18 21//18 33//18
f 35//1 34//1 2//1
f 35//20 16//20 34//20
f 16//19 18//19 34//19
f 2//1 36//1 35//1
f 36//21 12//21 35//21
f 35//20 14//20 16//20
f 12//22 14//22 35//22
f 37//23 38//23 36//23
f 37//1 36//1 2//1
f 38//24 12//24 36//24
f 38//1 39//1 40//1
f 39//23 38//23 37//23
f 40//1 12//1 38//1
f 40//7 41//7 12//7
f 41//25 40//25 42//25
f 42//25 40//25 44//25
f 39//1 43//1 40//1
f 40//1 43//1 45//1
f 40//25 45//25 44//25
f 44//25 45//25 46//25
f 45//25 47//25 46//25
f 49//26 47//26 45//26
f 45//1 50//1 48//1
f 48//1 49//1 45//1
f 43//1 50//1 45//1
f 51//27 50//27 52//27
f 48//27 50//27 51//27
f 50//28 43//28 52//28
f 2//1 52//1 53//1
f 51//1 52//1 2//1
f 52//28 43//28 53//28
f 53//1 37//1 2//1
f 53//29 39//29 37//29
f 43//29 39//29 53//29
f 54//1 51//1 2//1
f 54//30 49//30 51//30
f 49//31 48//31 51//31
f 2//1 55//1 54//1
f 55//32 56//32 54//32
f 56//33 49//33 54//33
f 56//6 57//6 8//6
f 57//32 56//32 55//32
f 49//6 56//6 8//6
f 57//6 58//6 8//6
f 58//34 57//34 59//34
f 59//34 57//34 55//34
f 59//1 55//1 2//1
f 60//1 59//1 2//1
f 60//35 58//35 59//35
f 2//1 61//1 60//1
f 61//36 62//36 60//36
f 62//35 58//35 60//35
f 58//6 62//6 8//6
f 8//6 62//6 63//6
f 63//36 62//36 61//36
f 64//37 63//37 61//37
f 65//37 63//37 64//37
f 63//6 65//6 8//6
f 66//38 65//38 64//38
f 67//38 65//38 66//38
f 65//6 67//6 8//6
f 69//39 67//39 66//39
f 8//6 67//6 68//6
f 68//39 67//39 69//39
f 2//1 69//1 66//1
f 70//1 69//1 2//1
f 70//40 68//40 69//40
f 71//1 70//1 2//1
f 71//41 72//41 70//41
f 72//40 68//40 70//40
f 72//6 73//6 8//6
f 73//41 72//41 71//41
f 68//6 72//6 8//6
f 8//6 73//6 74//6
f 74//42 73//42 75//42
f 75//42 73//42 71//42
f 2//1 75//1 71//1
f 76//1 75//1 2//1
f 76//43 74//43 75//43
f 3//5 7//5 76//5
f 3//1 76//1 2//1
f 7//43 74//43 76//43
f 74//6 7//6 8//6
f 66//1 64//1 2//1
f 64//1 61//1 2//1
f 8//26 77//26 49//26
f 77//26 47//26 49//26
f 78//6 79//6 77//6
f 83//6 78//6 77//6
f 77//6 79//6 82//6
f 19//8 77//8 8//8
f 19//6 80//6 77//6
f 80//6 81//6 77//6
f 77//6 81//6 83//6
f 84//6 77//6 82//6
f 47//6 77//6 84//6
f 82//44 85//44 84//44
f 85//45 86//45 84//45
f 84//46 86//46 87//46
f 87//6 47//6 84//6
f 87//47 88//47 89//47
f 86//46 88//46 87//46
f 87//6 89//6 47//6
f 88//47 90//47 89//47
f 89//48 90//48 91//48
f 89//6 91//6 47//6
f 90//48 92//48 91//48
f 91//49 92//49 93//49
f 47//6 91//6 93//6
f 92//49 94//49 93//49
f 93//50 94//50 95//50
f 93//6 95//6 47//6
f 95//51 96//51 97//51
f 94//52 96//52 95//52
f 95//6 97//6 47//6
f 96//51 98//51 97//51
f 97//53 98//53 99//53
f 47//6 97//6 99//6
f 98//53 100//53 99//53
f 99//54 100//54 101//54
f 99//6 101//6 47//6
f 100//54 102//54 101//54
f 101//55 102//55 103//55
f 101//6 103//6 47//6
f 103//56 104//56 105//56
f 102//57 104//57 103//57
f 103//6 105//6 41//6
f 47//6 103//6 41//6
f 104//58 106//58 105//58
f 105//59 106//59 107//59
f 41//6 105//6 107//6
f 106//59 108//59 107//59
f 107//60 108//60 109//60
f 107//6 109//6 41//6
f 108//60 110//60 109//60
f 109//61 110//61 111//61
f 109//6 111//6 41//6
f 111//62 112//62 113//62
f 110//61 112//61 111//61
f 41//6 111//6 113//6
f 112//62 114//62 113//62
f 113//63 114//63 115//63
f 113//6 115//6 41//6
f 114//63 116//63 115//63
f 115//64 116//64 117//64
f 115//6 117//6 41//6
f 116//64 118//64 117//64
f 117//65 118//65 119//65
f 117//6 119//6 41//6
f 119//66 120//66 121//66
f 118//65 120//65 119//65
f 119//6 121//6 19//6
f 41//6 119//6 19//6
f 120//66 122//66 121//66
f 121//67 122//67 123//67
f 19//6 121//6 123//6
f 122//67 124//67 123//67
f 123//68 124//68 125//68
f 125//6 19//6 123//6
f 124//68 126//68 125//68
f 125//69 126//69 127//69
f 125//6 127//6 19//6
f 127//70 128//70 129//70
f 126//71 128//71 127//71
f 127//6 129//6 19//6
f 129//72 130//72 80//72
f 128//70 130//70 129//70
f 129//6 80//6 19//6
f 130//72 131//72 80//72
f 132//1 131//1 130//1
f 130//1 128//1 132//1
f 42//26 134//26 132//26
f 137//26 42//26 132//26
f 133//1 131//1 132//1
f 128//1 126//1 132//1
f 132//1 120//1 137//1
f 122//1 120//1 132//1
f 135//1 133//1 132//1
f 124//1 122//1 132//1
f 132//1 126//1 124//1
f 132//25 134//25 136//25
f 135//25 132//25 136//25
f 120//1 118//1 137//1
f 112//1 110//1 137//1
f 114//1 112//1 137//1
f 137//1 104//1 46//1
f 106//1 104//1 137//1
f 137//1 116//1 114//1
f 108//1 106//1 137//1
f 46//25 47//25 137//25
f 137//1 118//1 116//1
f 137//1 110//1 108//1
f 47//25 41//25 137//25
f 137//25 41//25 42//25
f 46//7 135//7 136//7
f 44//6 136//6 134//6
f 44//7 46//7 136//7
f 138//1 141//1 135//1
f 139//1 138//1 135//1
f 88//1 86//1 135//1
f 46//1 88//1 135//1
f 140//1 133//1 135//1
f 85//1 139//1 135//1
f 135//1 141//1 140//1
f 135//1 86//1 85//1
f 140//73 141//73 83//73
f 83//74 141//74 78//74
f 141//74 138//74 78//74
f 133//75 140//75 81//75
f 81//73 140//73 83//73
f 138//76 139//76 79//76
f 79//77 139//77 82//77
f 139//77 85//77 82//77
f 78//78 138//78 79//78
f 42//6 44//6 134//6
f 131//79 133//79 80//79
f 80//80 133//80 81//80
f 104//1 102//1 46//1
f 102//1 100//1 46//1
f 46//1 100//1 98//1
f 98//1 96//1 46//1
f 96//1 94//1 46//1
f 46//1 94//1 92//1
f 92//1 90//1 46//1
f 90//1 88//1 46//1
f 41//7 19//7 12//7
f 142//7 143//7 146//7
f 142//8 144//8 143//8
f 144//6 142//6 145//6
f 142//6 146//6 145//6
f 147//8 149//8 146//8
f 143//7 147//7 146//7
f 149//8 148//8 146//8
f 146//8 148//8 145//8
f 152//8 149//8 147//8
f 150//6 151//6 149//6
f 152//6 150//6 149//6
f 151//26 153//26 149//26
f 153//26 148//26 149//26
f 154//26 153//26 151//26
f 156//81 153//81 154//81
f 155//1 148//1 153//1
f 156//1 155//1 153//1
f 157//81 156//81 154//81
f 156//7 157//7 158//7
f 150//7 156//7 158//7
f 155//7 156//7 150//7
f 150//82 158//82 151//82
f 158//82 159//82 151//82
f 158//8 160//8 159//8
f 158//7 157//7 160//7
f 157//7 161//7 160//7
f 160//6 161//6 165//6
f 160//1 163//1 162//1
f 164//1 160//1 162//1
f 160//8 163//8 159//8
f 163//6 160//6 164//6
f 160//8 166//8 163//8
f 164//6 160//6 165//6
f 167//1 160//1 164//1
f 160//7 167//7 166//7
f 167//7 168//7 166//7
f 168//25 167//25 169//25
f 167//25 170//25 169//25
f 170//1 167//1 165//1
f 165//1 167//1 164//1
f 161//6 170//6 171//6
f 161//25 157//25 170//25
f 157//25 154//25 170//25
f 170//26 154//26 159//26
f 171//6 170//6 162//6
f 170//6 163//6 162//6
f 169//26 170//26 163//26
f 163//26 170//26 159//26
f 163//1 170//1 172//1
f 172//1 170//1 165//1
f 162//1 163//1 172//1
f 174//7 162//7 172//7
f 173//7 174//7 172//7
f 173//8 172//8 165//8
f 174//25 176//25 162//25
f 173//1 175//1 174//1
f 175//1 176//1 174//1
f 176//25 164//25 162//25
f 176//26 175//26 164//26
f 175//8 173//8 165//8
f 175//26 165//26 164//26
f 178//7 171//7 162//7
f 165//6 161//6 171//6
f 177//8 165//8 171//8
f 178//8 177//8 171//8
f 179//6 180//6 178//6
f 179//7 178//7 162//7
f 180//6 177//6 178//6
f 177//26 180//26 165//26
f 180//25 179//25 164//25
f 180//26 164//26 165//26
f 179//25 162//25 164//25
f 168//83 169//83 182//83
f 181//26 169//26 163//26
f 182//26 169//26 181//26
f 183//26 182//26 181//26
f 185//26 182//26 183//26
f 184//83 168//83 182//83
f 184//6 182//6 185//6
f 189//26 185//26 183//26
f 186//8 185//8 187//8
f 186//6 184//6 185//6
f 187//8 185//8 188//8
f 185//8 189//8 188//8
f 190//1 189//1 183//1
f 188//8 189//8 191//8
f 189//8 190//8 191//8
f 192//6 188//6 191//6
f 194//6 192//6 191//6
f 191//8 190//8 193//8
f 194//26 191//26 193//26
f 196//26 194//26 193//26
f 192//8 194//8 195//8
f 194//8 196//8 195//8
f 196//1 193//1 187//1
f 195//1 196//1 187//1
f 192//7 195//7 188//7
f 195//7 187//7 188//7
f 193//8 186//8 187//8
f 190//8 186//8 193//8
f 197//7 184//7 190//7
f 197//1 190//1 183//1
f 184//7 186//7 190//7
f 166//7 168//7 197//7
f 166//84 197//84 181//84
f 197//84 183//84 181//84
f 168//7 184//7 197//7
f 166//8 181//8 163//8
f 162//6 163//6 164//6
f 159//26 154//26 151//26
f 152//7 155//7 150//7
f 148//8 155//8 145//8
f 155//8 152//8 198//8
f 145//8 155//8 198//8
f 144//26 145//26 198//26
f 199//26 144//26 198//26
f 199//1 198//1 147//1
f 198//8 152//8 147//8
f 144//8 199//8 143//8
f 143//1 199//1 147//1
