# Blender 4.2.11 LTS
# www.blender.org
o tmp_export_Science.422
v -0.042453 0.004241 0.000416
v 0.001327 -0.000133 -0.000013
v -0.042671 -0.000211 0.000418
v -0.041786 0.008648 0.000409
v -0.041884 0.008648 -0.009590
v -0.042769 -0.000211 -0.009581
v -0.041853 -0.009066 -0.009590
v -0.020460 -0.016055 -0.009800
v -0.016882 0.019766 -0.009835
v -0.039234 0.017147 -0.009616
v 0.020535 0.039405 -0.010202
v 0.012181 0.042482 -0.010120
v 0.003379 0.043815 -0.010034
v -0.005511 0.043348 -0.009946
v -0.014125 0.041101 -0.009862
v 0.042967 0.013787 -0.010422
v -0.022111 0.037166 -0.009784
v 0.039660 0.021289 -0.010389
v -0.029141 0.031704 -0.009715
v 0.034561 0.028587 -0.010339
v -0.034928 0.024939 -0.009658
v 0.028098 0.034709 -0.010276
v -0.017235 0.019766 -0.045833
v 0.026774 -0.000646 -0.046265
v 0.026332 -0.001121 -0.046260
v 0.050425 0.013007 -0.046496
v 0.028547 0.000078 -0.046282
v 0.026002 -0.001680 -0.046257
v 0.025801 -0.002297 -0.046255
v -0.020813 -0.016055 -0.045798
v 0.027908 -0.000032 -0.046276
v 0.027308 -0.000278 -0.046270
v 0.027986 -0.000032 -0.038276
v 0.027386 -0.000278 -0.038270
v 0.026852 -0.000646 -0.038265
v -0.009992 0.011011 -0.037904
v -0.009796 0.011011 -0.017905
v -0.011980 -0.008890 -0.037884
v -0.011784 -0.008890 -0.017885
v 0.049708 0.005047 -0.038489
v 0.026081 -0.001680 -0.038257
v 0.049904 0.005047 -0.018490
v 0.025879 -0.002297 -0.038255
v 0.026410 -0.001121 -0.038261
v 0.028626 0.000078 -0.038282
v 0.025829 -0.002618 -0.038255
v 0.025736 -0.002942 -0.046254
v 0.025815 -0.002942 -0.038255
v 0.025812 -0.003586 -0.046255
v 0.025890 -0.003586 -0.038256
v 0.026024 -0.004199 -0.046257
v 0.026103 -0.004199 -0.038258
v 0.026364 -0.004752 -0.046261
v 0.026442 -0.004752 -0.038261
v 0.026814 -0.005219 -0.046265
v 0.026892 -0.005219 -0.038265
v 0.027354 -0.005579 -0.046270
v 0.027432 -0.005579 -0.038271
v 0.027959 -0.005813 -0.046276
v 0.028037 -0.005813 -0.038277
v 0.028600 -0.005913 -0.046282
v 0.028678 -0.005913 -0.038283
v 0.047720 -0.014854 -0.038469
v 0.046847 -0.022815 -0.046461
v 0.031398 -0.004440 -0.038310
v 0.029326 -0.005872 -0.038289
v 0.031665 -0.003849 -0.038312
v 0.029949 -0.005693 -0.038295
v 0.031799 -0.003214 -0.038313
v 0.030519 -0.005384 -0.038301
v 0.047916 -0.014854 -0.018470
v 0.031010 -0.004960 -0.038306
v 0.047200 -0.022815 -0.010463
v 0.050778 0.013007 -0.010498
v 0.039736 -0.021417 -0.010390
v 0.039389 -0.022034 -0.010386
v 0.045009 -0.004506 -0.010442
v 0.043232 -0.013230 -0.010424
v 0.039834 -0.021417 -0.000390
v 0.043330 -0.013230 -0.000425
v 0.045107 -0.004506 -0.000442
v 0.045091 0.004397 -0.000442
v 0.044993 0.004397 -0.010441
v 0.043185 0.013114 -0.010424
v 0.043283 0.013114 -0.000424
v 0.039758 0.021289 -0.000390
v 0.034659 0.028587 -0.000340
v 0.028196 0.034709 -0.000276
v 0.020633 0.039405 -0.000202
v 0.012279 0.042482 -0.000120
v 0.003477 0.043815 -0.000034
v -0.005413 0.043348 0.000053
v -0.014027 0.041101 0.000137
v -0.022013 0.037166 0.000216
v -0.029043 0.031704 0.000285
v -0.034830 0.024939 0.000341
v -0.039136 0.017147 0.000384
v 0.034761 -0.028734 -0.000341
v 0.028320 -0.034879 -0.000278
v 0.034663 -0.028734 -0.010340
v 0.028222 -0.034879 -0.010277
v 0.020773 -0.039601 -0.000204
v 0.020675 -0.039601 -0.010203
v 0.012431 -0.042708 -0.000122
v 0.012333 -0.042708 -0.010121
v 0.003535 -0.044072 -0.010035
v 0.003633 -0.044072 -0.000036
v -0.005258 -0.043637 0.000052
v -0.013881 -0.041421 0.000136
v -0.005356 -0.043637 -0.009948
v -0.013979 -0.041421 -0.009863
v -0.021880 -0.037514 0.000214
v -0.021978 -0.037514 -0.009785
v -0.029028 -0.032077 -0.009716
v -0.028930 -0.032077 0.000284
v -0.034740 -0.025333 0.000340
v -0.039075 -0.017556 0.000383
v -0.034838 -0.025333 -0.009659
v -0.039173 -0.017556 -0.009617
v -0.041755 -0.009066 0.000409
v 0.030932 -0.004960 -0.046305
v 0.031320 -0.004440 -0.046309
v 0.031587 -0.003849 -0.046312
v 0.031721 -0.003214 -0.046313
v 0.031715 -0.002565 -0.046313
v 0.031794 -0.002565 -0.038313
v 0.031570 -0.001933 -0.046312
v 0.031649 -0.001933 -0.038312
v 0.031293 -0.001347 -0.046309
v 0.031371 -0.001347 -0.038309
v 0.030896 -0.000834 -0.046305
v 0.030974 -0.000834 -0.038305
v 0.030398 -0.000418 -0.046300
v 0.030476 -0.000418 -0.038300
v 0.029822 -0.000119 -0.046294
v 0.029900 -0.000119 -0.038295
v 0.029195 0.000049 -0.046288
v 0.029274 0.000049 -0.038289
v 0.030441 -0.005384 -0.046301
v 0.029871 -0.005693 -0.046295
v 0.029247 -0.005872 -0.046289
v 0.117544 -0.022061 -0.018903
v 0.117343 -0.022061 -0.039402
v 0.119582 -0.001662 -0.018923
v 0.049932 0.005296 -0.018240
v 0.047894 -0.015103 -0.018220
v 0.047693 -0.015103 -0.038719
v 0.047177 -0.023063 -0.010213
v 0.046820 -0.023063 -0.046711
v 0.066720 -0.025051 -0.046906
v 0.050447 0.013256 -0.046747
v 0.136727 -0.032009 -0.011090
v 0.070347 0.011268 -0.046942
v 0.132908 0.004956 -0.111058
v 0.050805 0.013256 -0.010248
v 0.140355 0.004310 -0.011126
v 0.169911 0.001328 -0.041417
v 0.166283 -0.034991 -0.041381
v 0.129280 -0.031363 -0.111022
v 0.165401 -0.034991 -0.131377
v 0.169029 0.001328 -0.131413
v 0.158236 -0.026236 -0.131307
v 0.137839 -0.024198 -0.131107
v 0.129084 -0.031363 -0.131021
v 0.132712 0.004956 -0.131057
v 0.139876 -0.003799 -0.131127
v 0.132516 0.004956 -0.151056
v 0.128888 -0.031363 -0.151020
v 0.158236 -0.026236 -0.131307
v 0.165401 -0.034991 -0.131377
v 0.164519 -0.034991 -0.221373
v 0.134375 -0.032009 -0.251079
v 0.169029 0.001328 -0.131413
v 0.168147 0.001328 -0.221408
v 0.068711 0.011268 -0.213934
v 0.138003 0.004310 -0.251114
v 0.048453 0.013256 -0.250237
v 0.044825 -0.023063 -0.250201
v 0.048811 0.013256 -0.213739
v 0.045183 -0.023063 -0.213703
v 0.047937 0.005296 -0.221730
v 0.047736 0.005296 -0.242229
v 0.065083 -0.025051 -0.213898
v 0.117386 -0.001662 -0.242912
v 0.117587 -0.001662 -0.222413
v 0.045699 -0.015103 -0.242209
v 0.115349 -0.022061 -0.242892
v 0.045900 -0.015103 -0.221710
v 0.115550 -0.022061 -0.222393
v 0.160274 -0.005837 -0.131327
v 0.157550 -0.026236 -0.201304
v 0.159588 -0.005837 -0.201324
v 0.137153 -0.024198 -0.201104
v 0.139191 -0.003799 -0.201124
v 0.160274 -0.005837 -0.131327
v 0.140562 -0.003799 -0.061130
v 0.138525 -0.024198 -0.061110
v 0.158922 -0.026236 -0.061310
v 0.160960 -0.005837 -0.061330
v 0.049731 0.005296 -0.038739
v 0.119381 -0.001662 -0.039422
vn 0.0098 -0.0000 1.0000
vn -0.9988 0.0489 0.0098
vn -0.9887 0.1497 0.0097
vn -0.9950 0.0994 -0.0128
vn -0.0098 -0.0000 -1.0000
vn -0.9946 -0.1029 0.0097
vn 0.0994 0.9950 -0.0010
vn -0.9950 0.0994 0.0098
vn 0.3782 -0.9257 -0.0037
vn 0.5684 -0.8227 -0.0056
vn 0.9950 -0.0994 -0.0098
vn -0.0994 -0.9950 0.0010
vn 0.9882 -0.1530 -0.0097
vn 0.9950 -0.0994 -0.0076
vn 0.9989 -0.0453 -0.0098
vn 0.9931 0.1168 -0.0097
vn 0.9931 0.1169 -0.0097
vn 0.9448 0.3276 -0.0093
vn 0.8523 0.5230 -0.0084
vn 0.8522 0.5231 -0.0084
vn 0.7199 0.6941 -0.0071
vn 0.7199 0.6940 -0.0071
vn 0.5539 0.8326 -0.0054
vn 0.3620 0.9322 -0.0035
vn 0.1531 0.9882 -0.0015
vn 0.9196 -0.3927 -0.0090
vn 0.9798 -0.1996 -0.0096
vn 1.0000 0.0018 -0.0098
vn 0.9791 0.2030 -0.0096
vn 0.9511 0.3087 -0.0093
vn 0.9183 0.3960 -0.0024
vn 0.8197 0.5727 -0.0080
vn 0.9150 0.4034 -0.0090
vn 0.6876 0.7260 -0.0067
vn 0.5274 0.8496 -0.0052
vn 0.3456 0.9384 -0.0034
vn 0.1497 0.9887 -0.0015
vn -0.0524 0.9986 0.0005
vn -0.2524 0.9676 0.0025
vn -0.4420 0.8970 0.0043
vn -0.6135 0.7897 0.0060
vn -0.7599 0.6500 0.0074
vn -0.8752 0.4837 0.0086
vn -0.9546 0.2977 0.0094
vn 0.8218 -0.5698 -0.0015
vn 0.8713 -0.4908 -0.0085
vn 0.6902 -0.7236 -0.0068
vn 0.8171 -0.5764 -0.0080
vn 0.5304 -0.8477 -0.0052
vn 0.3490 -0.9371 -0.0034
vn 0.1532 -0.9882 -0.0015
vn -0.0489 -0.9988 0.0005
vn -0.2489 -0.9685 0.0024
vn -0.4388 -0.8986 0.0043
vn -0.6107 -0.7919 0.0060
vn -0.7576 -0.6527 0.0074
vn -0.8734 -0.4869 0.0086
vn -0.9536 -0.3011 0.0093
vn -0.6540 0.7565 0.0064
vn -0.8013 0.5982 0.0079
vn -0.9112 0.4119 0.0089
vn -0.9784 0.2065 0.0096
vn -0.9784 0.2064 0.0096
vn -0.9999 -0.0088 0.0098
vn -0.9747 -0.2235 0.0095
vn -0.9038 -0.4279 0.0089
vn -0.9038 -0.4278 0.0089
vn -0.7908 -0.6121 0.0078
vn -0.7907 -0.6121 0.0077
vn -0.6406 -0.7678 0.0063
vn -0.6407 -0.7678 0.0063
vn -0.4606 -0.8876 0.0045
vn -0.2590 -0.9659 0.0025
vn -0.2591 -0.9659 0.0025
vn -0.0454 -0.9990 0.0004
vn 0.0098 -0.0001 1.0000
vn -0.6540 0.7564 0.0064
vn -0.4761 0.8794 0.0047
vn -0.2759 0.9612 0.0027
vn -0.0629 0.9980 0.0006
vn 0.1704 -0.9854 -0.0017
vn 0.7320 -0.6813 -0.0072
vn 0.8613 -0.5079 -0.0084
vn 0.8613 -0.5080 -0.0084
vn 0.9504 -0.3110 -0.0093
vn 0.7319 -0.6813 -0.0072
vn -0.9950 0.0994 0.0097
vn -0.7105 0.0703 -0.7002
vn 0.7105 -0.0703 0.7002
vn 0.6966 -0.0703 -0.7140
vn -0.6966 0.0703 0.7140
s 0
f 1//1 2//1 4//1
f 1//1 3//1 2//1
f 1//2 6//2 3//2
f 4//3 5//3 1//3
f 5//4 6//4 1//4
f 6//5 5//5 9//5
f 7//5 6//5 8//5
f 6//6 7//6 3//6
f 8//5 6//5 9//5
f 9//5 5//5 10//5
f 9//5 10//5 21//5
f 11//5 22//5 9//5
f 9//5 12//5 11//5
f 13//5 12//5 9//5
f 14//5 13//5 9//5
f 9//5 15//5 14//5
f 17//5 15//5 9//5
f 16//7 23//7 9//7
f 18//5 16//5 9//5
f 19//5 17//5 9//5
f 9//5 20//5 18//5
f 19//5 9//5 21//5
f 22//5 20//5 9//5
f 9//8 23//8 8//8
f 23//8 30//8 8//8
f 24//5 23//5 32//5
f 24//5 25//5 23//5
f 25//5 28//5 23//5
f 26//7 23//7 16//7
f 26//5 27//5 23//5
f 27//5 31//5 23//5
f 28//5 29//5 23//5
f 23//5 29//5 30//5
f 23//5 31//5 32//5
f 31//9 33//9 32//9
f 33//9 34//9 32//9
f 32//10 34//10 24//10
f 34//10 35//10 24//10
f 36//1 35//1 34//1
f 34//1 33//1 36//1
f 36//11 37//11 39//11
f 42//12 37//12 36//12
f 38//11 36//11 39//11
f 38//1 46//1 36//1
f 36//1 45//1 40//1
f 40//12 42//12 36//12
f 44//1 35//1 36//1
f 41//1 44//1 36//1
f 36//1 43//1 41//1
f 46//1 43//1 36//1
f 33//1 45//1 36//1
f 43//13 46//13 29//13
f 29//14 46//14 47//14
f 46//15 48//15 47//15
f 48//1 46//1 38//1
f 48//16 50//16 49//16
f 47//17 48//17 49//17
f 38//1 50//1 48//1
f 49//18 50//18 51//18
f 50//18 52//18 51//18
f 52//1 50//1 38//1
f 51//19 52//19 53//19
f 52//20 54//20 53//20
f 54//1 52//1 38//1
f 53//21 54//21 55//21
f 54//22 56//22 55//22
f 56//1 54//1 38//1
f 56//23 58//23 57//23
f 55//23 56//23 57//23
f 38//1 58//1 56//1
f 57//24 58//24 59//24
f 58//24 60//24 59//24
f 60//1 58//1 38//1
f 59//25 60//25 61//25
f 60//25 62//25 61//25
f 62//1 60//1 63//1
f 63//1 60//1 38//1
f 63//11 64//11 40//11
f 73//11 64//11 63//11
f 40//1 69//1 63//1
f 63//1 65//1 72//1
f 67//1 65//1 63//1
f 66//1 62//1 63//1
f 63//1 68//1 66//1
f 63//7 38//7 39//7
f 71//7 63//7 39//7
f 69//1 67//1 63//1
f 70//1 68//1 63//1
f 72//1 70//1 63//1
f 71//11 73//11 63//11
f 74//11 73//11 71//11
f 76//12 64//12 73//12
f 74//1 77//1 73//1
f 73//1 78//1 75//1
f 75//1 76//1 73//1
f 77//1 78//1 73//1
f 75//26 78//26 79//26
f 78//27 77//27 80//27
f 79//26 78//26 80//26
f 80//27 77//27 81//27
f 2//1 80//1 81//1
f 79//1 80//1 2//1
f 81//28 83//28 82//28
f 81//1 82//1 2//1
f 77//28 83//28 81//28
f 83//1 77//1 74//1
f 83//29 84//29 82//29
f 84//1 83//1 74//1
f 82//29 84//29 85//29
f 84//30 16//30 85//30
f 74//1 16//1 84//1
f 82//1 85//1 2//1
f 2//1 85//1 86//1
f 85//31 16//31 86//31
f 86//1 87//1 2//1
f 86//32 20//32 87//32
f 86//32 18//32 20//32
f 16//33 18//33 86//33
f 87//34 22//34 88//34
f 87//1 88//1 2//1
f 20//34 22//34 87//34
f 22//35 11//35 88//35
f 88//35 11//35 89//35
f 2//1 88//1 89//1
f 89//1 90//1 2//1
f 89//36 12//36 90//36
f 11//36 12//36 89//36
f 90//1 91//1 2//1
f 90//37 13//37 91//37
f 12//37 13//37 90//37
f 91//38 14//38 92//38
f 2//1 91//1 92//1
f 13//38 14//38 91//38
f 92//39 15//39 93//39
f 92//1 93//1 2//1
f 14//39 15//39 92//39
f 93//40 17//40 94//40
f 93//1 94//1 2//1
f 15//40 17//40 93//40
f 17//41 19//41 94//41
f 94//41 19//41 95//41
f 2//1 94//1 95//1
f 95//1 96//1 2//1
f 95//42 21//42 96//42
f 19//42 21//42 95//42
f 96//1 97//1 2//1
f 96//43 10//43 97//43
f 21//43 10//43 96//43
f 10//44 5//44 97//44
f 97//44 5//44 4//44
f 2//1 97//1 4//1
f 98//1 79//1 2//1
f 98//45 76//45 79//45
f 76//46 75//46 79//46
f 2//1 99//1 98//1
f 99//47 100//47 98//47
f 100//48 76//48 98//48
f 101//47 100//47 99//47
f 100//5 101//5 8//5
f 76//5 100//5 8//5
f 102//49 101//49 99//49
f 103//49 101//49 102//49
f 101//5 103//5 8//5
f 104//50 103//50 102//50
f 105//50 103//50 104//50
f 103//5 105//5 8//5
f 107//51 105//51 104//51
f 8//5 105//5 106//5
f 106//51 105//51 107//51
f 2//1 107//1 104//1
f 108//52 106//52 107//52
f 108//1 107//1 2//1
f 109//53 110//53 108//53
f 109//1 108//1 2//1
f 110//52 106//52 108//52
f 110//5 111//5 8//5
f 111//53 110//53 109//53
f 106//5 110//5 8//5
f 112//54 111//54 109//54
f 113//54 111//54 112//54
f 8//5 111//5 113//5
f 115//55 113//55 112//55
f 113//5 114//5 8//5
f 114//55 113//55 115//55
f 115//1 112//1 2//1
f 116//1 115//1 2//1
f 116//56 114//56 115//56
f 2//1 117//1 116//1
f 117//57 118//57 116//57
f 118//56 114//56 116//56
f 119//57 118//57 117//57
f 8//5 118//5 119//5
f 114//5 118//5 8//5
f 120//58 119//58 117//58
f 7//58 119//58 120//58
f 119//5 7//5 8//5
f 120//1 117//1 2//1
f 3//6 7//6 120//6
f 3//1 120//1 2//1
f 2//1 112//1 109//1
f 104//1 102//1 2//1
f 102//1 99//1 2//1
f 30//12 64//12 76//12
f 8//12 30//12 76//12
f 74//7 26//7 16//7
f 26//11 74//11 42//11
f 42//11 74//11 71//11
f 70//59 72//59 121//59
f 121//60 72//60 122//60
f 72//60 65//60 122//60
f 64//5 121//5 122//5
f 122//61 65//61 123//61
f 122//5 123//5 64//5
f 65//61 67//61 123//61
f 123//62 67//62 124//62
f 123//5 124//5 64//5
f 67//63 69//63 124//63
f 124//64 69//64 125//64
f 124//5 125//5 26//5
f 64//5 124//5 26//5
f 69//64 126//64 125//64
f 125//65 126//65 127//65
f 26//5 125//5 127//5
f 126//65 128//65 127//65
f 127//66 128//66 129//66
f 127//5 129//5 26//5
f 128//67 130//67 129//67
f 129//68 130//68 131//68
f 129//5 131//5 26//5
f 130//69 132//69 131//69
f 131//70 132//70 133//70
f 26//5 131//5 133//5
f 132//71 134//71 133//71
f 133//72 134//72 135//72
f 133//5 135//5 26//5
f 134//72 136//72 135//72
f 135//73 136//73 137//73
f 135//5 137//5 26//5
f 136//74 138//74 137//74
f 137//75 138//75 27//75
f 137//5 27//5 26//5
f 40//1 138//1 136//1
f 138//75 45//75 27//75
f 45//76 138//76 40//76
f 40//1 136//1 134//1
f 134//1 132//1 40//1
f 132//1 130//1 40//1
f 40//1 130//1 128//1
f 128//1 126//1 40//1
f 126//1 69//1 40//1
f 139//5 121//5 64//5
f 139//77 70//77 121//77
f 140//5 139//5 64//5
f 140//78 68//78 139//78
f 68//78 70//78 139//78
f 66//79 68//79 140//79
f 141//79 66//79 140//79
f 64//5 141//5 140//5
f 61//5 141//5 64//5
f 61//80 62//80 141//80
f 62//80 66//80 141//80
f 42//5 71//5 37//5
f 71//5 39//5 37//5
f 64//11 26//11 40//11
f 64//5 30//5 57//5
f 59//5 64//5 57//5
f 59//5 61//5 64//5
f 57//5 30//5 55//5
f 30//5 53//5 55//5
f 51//5 53//5 30//5
f 49//5 51//5 30//5
f 30//5 47//5 49//5
f 29//5 47//5 30//5
f 27//81 45//81 31//81
f 45//81 33//81 31//81
f 35//82 44//82 25//82
f 25//83 44//83 28//83
f 44//84 41//84 28//84
f 41//85 43//85 29//85
f 40//11 26//11 42//11
f 28//85 41//85 29//85
f 24//86 35//86 25//86
f 142//7 143//7 146//7
f 142//87 144//87 143//87
f 144//5 142//5 145//5
f 142//5 146//5 145//5
f 143//7 147//7 146//7
f 146//8 148//8 145//8
f 147//87 149//87 146//87
f 149//8 148//8 146//8
f 150//12 152//12 149//12
f 153//5 150//5 149//5
f 151//8 149//8 147//8
f 151//5 153//5 149//5
f 152//12 148//12 149//12
f 153//88 154//88 150//88
f 153//7 156//7 154//7
f 151//7 155//7 153//7
f 155//7 156//7 153//7
f 156//1 155//1 152//1
f 156//89 152//89 158//89
f 157//89 156//89 158//89
f 156//7 157//7 154//7
f 158//12 152//12 150//12
f 159//12 158//12 150//12
f 160//12 158//12 159//12
f 157//11 158//11 160//11
f 164//12 160//12 159//12
f 161//5 160//5 162//5
f 161//11 157//11 160//11
f 162//5 160//5 163//5
f 160//5 164//5 163//5
f 165//8 164//8 159//8
f 163//1 164//1 169//1
f 163//5 164//5 166//5
f 165//1 164//1 163//1
f 164//5 165//5 166//5
f 165//8 167//8 164//8
f 167//8 168//8 164//8
f 168//12 171//12 164//12
f 164//1 170//1 169//1
f 171//12 170//12 164//12
f 172//12 171//12 168//12
f 174//90 171//90 172//90
f 173//11 170//11 171//11
f 174//11 173//11 171//11
f 176//90 174//90 172//90
f 167//7 174//7 175//7
f 173//7 174//7 167//7
f 174//7 176//7 175//7
f 175//7 176//7 179//7
f 176//7 177//7 179//7
f 177//5 176//5 178//5
f 176//5 172//5 178//5
f 180//8 179//8 181//8
f 179//1 180//1 183//1
f 181//87 179//87 182//87
f 179//8 177//8 182//8
f 175//1 179//1 183//1
f 175//91 183//91 168//91
f 183//12 172//12 168//12
f 180//12 178//12 183//12
f 178//12 172//12 183//12
f 185//12 181//12 182//12
f 184//1 182//1 186//1
f 184//12 185//12 182//12
f 182//8 177//8 186//8
f 177//8 178//8 186//8
f 186//87 178//87 188//87
f 187//1 184//1 186//1
f 187//7 186//7 188//7
f 178//8 180//8 188//8
f 189//5 188//5 181//5
f 189//7 187//7 188//7
f 188//8 180//8 181//8
f 189//8 185//8 187//8
f 185//5 189//5 181//5
f 185//87 184//87 187//87
f 167//91 175//91 168//91
f 190//1 173//1 166//1
f 170//1 173//1 190//1
f 173//1 165//1 166//1
f 165//7 173//7 167//7
f 192//12 190//12 166//12
f 169//1 170//1 190//1
f 191//8 169//8 190//8
f 192//8 191//8 190//8
f 194//12 192//12 166//12
f 191//1 192//1 193//1
f 192//1 194//1 193//1
f 194//11 166//11 163//11
f 193//11 194//11 163//11
f 191//7 193//7 169//7
f 193//7 163//7 169//7
f 196//12 166//12 195//12
f 166//5 165//5 195//5
f 196//11 197//11 166//11
f 197//11 163//11 166//11
f 166//1 165//1 163//1
f 197//7 198//7 163//7
f 197//5 196//5 198//5
f 198//7 162//7 163//7
f 198//8 199//8 162//8
f 196//5 199//5 198//5
f 199//8 195//8 162//8
f 199//12 196//12 195//12
f 195//5 161//5 162//5
f 165//5 161//5 195//5
f 154//8 165//8 159//8
f 157//7 161//7 165//7
f 154//7 157//7 165//7
f 154//88 159//88 150//88
f 155//1 148//1 152//1
f 148//8 155//8 145//8
f 155//8 151//8 200//8
f 145//87 155//87 200//87
f 201//1 200//1 147//1
f 201//12 144//12 200//12
f 144//12 145//12 200//12
f 200//8 151//8 147//8
f 143//1 201//1 147//1
f 144//87 201//87 143//87
